<?xml version="1.0" standalone="no"?>
<!DOCTYPE svg PUBLIC "-//W3C//DTD SVG 20010904//EN"
 "http://www.w3.org/TR/2001/REC-SVG-20010904/DTD/svg10.dtd">
<svg version="1.0" xmlns="http://www.w3.org/2000/svg"
 width="1081.000000pt" height="1081.000000pt" viewBox="0 0 1081.000000 1081.000000"
 preserveAspectRatio="xMidYMid meet">
<metadata>
Created by potrace 1.14, written by Peter Selinger 2001-2017
</metadata>
<g transform="translate(0.000000,1081.000000) scale(0.100000,-0.100000)"
fill="#000000" stroke="none">
<path d="M510 8922 c-19 -9 -45 -32 -57 -51 l-23 -34 0 -3227 0 -3227 23 -33
c12 -18 38 -41 57 -51 33 -18 77 -19 875 -19 l840 -1 44 -60 c109 -150 309
-331 492 -444 242 -150 524 -249 809 -285 124 -15 383 -13 481 5 197 34 368
118 502 245 139 131 222 264 283 452 l28 88 2652 0 2651 0 33 23 c19 12 43 38
54 57 l21 35 0 3215 0 3215 -21 35 c-11 19 -35 45 -54 57 l-33 23 -4811 0
c-4560 0 -4813 -1 -4846 -18z m8500 -967 l0 -665 -675 0 c-434 0 -675 3 -675
10 0 5 35 99 77 207 73 187 78 202 77 273 -1 118 -58 216 -158 275 -91 53 9
59 -1909 -115 -1704 -154 -1769 -160 -1821 -185 -102 -48 -142 -109 -277 -422
l-18 -43 -1441 0 -1440 0 0 665 0 665 4130 0 4130 0 0 -665z m658 3 l-3 -663
-247 -3 -248 -2 0 665 0 665 250 0 250 0 -2 -662z m-2247 -375 c-421 -1093
-691 -2141 -727 -2827 -6 -112 -5 -128 8 -120 8 5 63 43 124 85 543 378 1051
558 1357 480 228 -59 349 -207 423 -518 65 -276 93 -578 75 -802 -37 -461
-189 -794 -434 -952 -91 -59 -158 -81 -268 -87 -92 -4 -99 -3 -149 24 -28 15
-75 53 -103 84 -162 177 -236 437 -208 732 21 229 86 440 217 701 l74 148 -68
-56 c-115 -97 -362 -288 -487 -377 -452 -323 -797 -496 -1079 -544 -268 -45
-431 69 -483 337 -13 69 -14 130 -10 344 3 143 13 328 22 410 71 667 232 1318
481 1934 41 101 74 184 74 186 0 1 -37 -8 -81 -21 -409 -119 -985 -160 -1392
-99 -55 8 -106 15 -113 15 -7 0 -20 -26 -29 -57 -65 -227 -472 -1071 -649
-1347 l-33 -52 30 -60 c56 -111 199 -478 282 -729 208 -625 310 -1115 322
-1550 16 -597 -154 -927 -532 -1037 -72 -21 -100 -23 -275 -22 -219 0 -317 16
-510 80 -418 140 -784 464 -907 805 -23 65 -27 90 -27 199 -1 117 1 129 26
180 92 186 281 271 603 273 168 1 275 -11 480 -54 135 -28 144 -32 268 -105
71 -41 130 -74 132 -72 2 2 -174 401 -391 888 -217 487 -401 907 -409 934 -20
65 -19 189 1 256 18 60 179 428 589 1345 152 341 308 690 346 775 l70 156
1412 127 c776 71 1547 140 1712 155 165 15 301 25 303 22 1 -3 -29 -87 -67
-187z m-4090 -960 c-125 -280 -269 -604 -321 -721 l-94 -212 -1086 2 -1085 3
-3 718 -2 717 1409 0 1408 0 -226 -507z m5679 -213 l0 -720 -924 0 -924 0 49
193 c61 238 111 411 196 682 63 199 177 538 189 556 3 5 322 9 710 9 l704 0 0
-720z m658 3 l-3 -718 -247 -3 -248 -2 0 720 0 720 250 0 250 0 -2 -717z
m-3954 -185 c-30 -90 -113 -374 -144 -495 l-11 -43 -480 0 c-381 0 -480 3
-476 13 3 6 48 102 100 213 53 110 114 243 136 295 40 93 41 94 73 92 126 -9
589 -2 688 10 63 8 123 15 132 16 14 1 12 -13 -18 -101z m-2874 -704 c0 -3
-18 -48 -41 -101 -62 -147 -81 -229 -81 -363 0 -84 6 -136 21 -193 11 -43 86
-225 167 -405 80 -180 149 -335 151 -344 5 -17 -54 -18 -1151 -18 l-1156 0 0
715 0 715 1045 0 c575 0 1045 -2 1045 -6z m2680 2 c0 -2 -16 -83 -35 -179 -69
-351 -113 -719 -123 -1037 l-7 -205 -323 0 -324 0 -48 160 c-72 236 -151 463
-247 704 l-85 214 26 46 c15 25 57 103 94 173 l67 128 503 0 c276 0 502 -2
502 -4z m2223 -17 c-166 -35 -386 -115 -577 -211 -43 -22 -81 -37 -84 -33 -5
5 36 241 45 258 2 4 163 7 356 6 l352 0 -92 -20z m1266 -646 c-1 -412 -5 -637
-10 -588 -24 233 -67 463 -116 620 -101 319 -318 539 -608 615 l-70 19 403 0
402 1 -1 -667z m659 -45 l-3 -713 -247 -3 -248 -2 0 715 0 715 250 0 250 0 -2
-712z m-6466 -1020 c36 -79 64 -144 63 -145 -1 -2 -65 2 -143 9 -469 37 -837
-107 -1010 -395 -98 -163 -125 -412 -66 -607 8 -25 14 -48 14 -52 0 -5 -295
-8 -655 -8 l-655 0 0 670 0 670 1193 0 1194 0 65 -142z m2162 120 c3 -13 8
-45 11 -73 4 -27 18 -86 32 -130 76 -244 243 -410 473 -472 90 -24 295 -24
409 1 207 44 503 173 766 334 l130 79 6 -131 c19 -393 152 -686 402 -887 l49
-39 -1364 0 -1364 0 4 129 c9 289 -55 783 -147 1139 l-19 72 304 0 304 0 4
-22z m4306 -648 l0 -670 -250 0 -250 0 0 670 0 670 250 0 250 0 0 -670z m-660
-45 l0 -625 -342 0 -342 0 60 36 c333 200 550 594 606 1102 6 61 13 112 15
112 2 0 3 -281 3 -625z"/>
<path d="M8442 4003 c-23 -54 -71 -177 -107 -273 -91 -240 -182 -425 -238
-482 -67 -69 -98 -83 -192 -83 -70 0 -89 4 -149 33 -37 17 -70 32 -72 32 -12
0 45 -76 86 -114 71 -67 127 -89 225 -90 104 -1 181 32 254 109 140 148 227
362 252 622 11 115 4 343 -10 343 -4 0 -26 -44 -49 -97z"/>
<path d="M4299 2371 c-121 -122 -239 -179 -414 -201 -175 -22 -381 12 -745
124 -80 25 -147 43 -149 40 -10 -10 137 -140 215 -191 150 -98 303 -152 482
-173 310 -36 558 96 652 348 17 43 42 135 36 131 0 -1 -35 -36 -77 -78z"/>
</g>
</svg>
