<?xml version="1.0" encoding="UTF-8"?>
<svg id="Layer_3" data-name="Layer 3" xmlns="http://www.w3.org/2000/svg" viewBox="0 0 240 135">
  <defs>
    <style>
      .cls-1 {
        fill: #231f20;
        stroke-width: 0px;
      }
    </style>
  </defs>
  <path class="cls-1" d="M174.8,48.5H61.99c-1.05,0-1.91.85-1.91,1.91v75.11c0,1.05.85,1.91,1.91,1.91h19.42c3.54,5.21,10.5,9.49,18.73,9.49.21,0,.43,0,.64,0,6.06-.16,9.08-3.42,10.55-6.13.55-1.02.97-2.15,1.28-3.35h62.2c1.05,0,1.91-.85,1.91-1.91V50.41c0-1.05-.85-1.91-1.91-1.91ZM63.89,52.32h97.81v15.74h-16.02c.96-2.6,1.62-4.22,1.65-4.28.51-1.23.33-2.64-.46-3.72-.72-.98-1.87-1.55-3.07-1.55-.11,0-.23,0-.34.02l-40.67,3.68c-1.38.12-2.58.98-3.14,2.24-.1.22-.72,1.6-1.62,3.61h-34.14v-15.74ZM160.46,97.21c-1.21-4.67-4.24-7.61-8.45-8.29h9.7v16.87h0c-.08-2.74-.48-5.63-1.25-8.58ZM145,69.97h16.71v17.04h-21.84c1.46-6.28,3.53-12.58,5.13-17.04ZM139.44,88.92h8.66c-3.2.43-6.5,1.8-9.29,3.28.18-1.08.4-2.18.63-3.28ZM63.89,69.97h33.28c-2.28,5.09-5.58,12.5-7.59,17.04h-25.7v-17.04ZM63.89,88.92h24.85c-.4.91-.69,1.58-.82,1.89-1.48,3.58-.33,6.62.04,7.42l3.37,7.56h-27.44v-16.87ZM63.89,123.61v-15.91h28.29l1.56,3.49c-1.2-.15-2.34-.23-3.4-.23-3.41,0-6.15.79-8.16,2.34-2.12,1.64-3.29,4.06-3.29,6.81,0,1.15.21,2.33.59,3.51h-15.6ZM100.67,133.09c-.18,0-.36,0-.54,0-15.56,0-24.81-18.32-9.79-18.32,2,0,4.42.32,7.32,1.06l3.15,1.84-9.36-21.01s-1-1.96,0-4.39,11.68-26.27,11.68-26.27l40.67-3.68s-9.45,22.99-9.55,37.33c0,0,9.06-7.07,15.81-7.07,3.04,0,5.61,1.43,6.69,5.58,3.38,13.05-1.17,22.64-7.58,22.64-.16,0-.32,0-.47-.02-2.17-.03-8.79-6.92-1.05-20.18,0,0-13.39,11.83-20.71,11.83-2.84,0-4.77-1.78-4.66-6.7,0,0-.45-14.66,6.95-31.49,0,0-5.43,1.83-12.37,1.83-2.12,0-4.37-.17-6.66-.61.16,1.29-5.96,14.06-8.24,17.29,1.4,2.3,17.08,39.84-1.28,40.34ZM118.46,105.75s0,.03,0,.04h-7.67c-1.5-5.36-3.33-10.07-4.5-12.76.69-1.19,1.46-2.63,2.22-4.11h11.93c-2.05,9.2-2,15.84-1.98,16.83ZM120.88,87.01h-11.41c.34-.68.66-1.35.97-1.99,1.09-2.29,1.86-4.02,2.4-5.33,1.31.13,2.65.19,4.02.19,2.27,0,4.39-.18,6.24-.43-.9,2.63-1.63,5.16-2.21,7.55ZM111.3,107.7h7.24c.24,2.66,1.08,4.76,2.53,6.24,1.04,1.06,2.9,2.32,5.88,2.32,3.47,0,7.82-1.72,13.26-5.24-.24,4.06.86,6.99,1.87,8.78.95,1.68,2.19,2.99,3.52,3.82h-32.38c.37-4.94-.56-10.65-1.9-15.91ZM161.71,123.61h-8.16c1.6-.76,3.05-1.94,4.27-3.51,2.42-3.12,3.73-7.46,3.88-12.41h0v15.91ZM169.49,123.61h-5.88v-15.91h5.88v15.91ZM169.49,105.79h-5.88v-16.87h5.88v16.87ZM169.49,87.01h-5.88v-17.04h5.88v17.04ZM169.49,68.06h-5.88v-15.74h5.88v15.74Z"/>
  <path class="cls-1" d="M90.34,126.65c4.21,5.3,15.1,7.15,16.56-1.36-4.38,5.73-10.81,3.06-16.56,1.36Z"/>
  <path class="cls-1" d="M152.8,117.22c2.79-3.13,3.33-7.57,2.81-11.56-1.37,2.74-2.13,5.69-3.45,8.34-1.38,2.98-3.14,3.82-6.19,2.08,1.26,2.76,4.74,3.47,6.84,1.14Z"/>
</svg>
